<svg xmlns="http://www.w3.org/2000/svg" viewBox="0 0 281.39 269"><defs><style>.cls-1{fill:#43603d;}.cls-2{fill:#b3cbaa;}.cls-3{fill:none;stroke:#272727;stroke-miterlimit:10;stroke-width:25px;}</style></defs><title>Asset 5</title><g id="Layer_2" data-name="Layer 2"><g id="Layer_1-2" data-name="Layer 1"><path id="user-parents" class="cls-1" d="M222.31,189.82c3.8,3.8,5.45,6.64,5.45,10.23v8.3a3.28,3.28,0,0,1-3.28,3.28H174.91a16.89,16.89,0,0,0,.33-3.28v-8.3c0-4.71-.73-10.05-5.12-15.44a27.68,27.68,0,0,0,6.15.76h4.5c9.68,0,19.18-5.21,25-13C211.71,178.71,220,187.47,222.31,189.82ZM229.44,144c-17.95-25.92,2.06-76.83-34.51-76.83-13.73-13.74-33.82-11.48-47,0,4.87,7.21,7.57,16.1,7.57,26.24v11c5,5.79,6.41,14.09,3.34,22.33l-1.83,4.92a31,31,0,0,1-9.15,12.74l-3,13.59a133.72,133.72,0,0,0,14.69,2.53c2.48,6.5,9.73,11.7,16.65,11.7h4.5c6.92,0,14.19-5.21,16.65-11.72,10.65-1.24,20.66-3.52,28.86-6.92C230.06,152,231.77,147.39,229.44,144Zm-72.78,45.79c-2.86-2.16-12-9.71-19.38-15.84a32.9,32.9,0,0,1-24.75,11.39H100.08a32.92,32.92,0,0,1-24.79-11.44c-7.55,6.22-16.9,13.92-19.34,15.89-4.27,3.44-5.45,6.62-5.45,10.23v8.3a3.28,3.28,0,0,0,3.28,3.28h105a3.28,3.28,0,0,0,3.29-3.28v-8.3C162.11,196.44,161.69,193.63,156.66,189.82Zm-88.8-62.71a19.66,19.66,0,0,0,8.61,9.6l4.37,20a19.69,19.69,0,0,0,19.24,15.5h12.44a19.71,19.71,0,0,0,19.25-15.5l4.37-20a19.64,19.64,0,0,0,8.6-9.6l1.84-4.94c1.94-5.21.08-9.67-4.17-11.45V93.46c0-19.7-13.13-32.83-36.11-32.83S70.2,73.76,70.2,93.46v17.26C66,112.5,64.08,117,66,122.17Z"/><path id="folder-check" class="cls-2" d="M236.79,60.5a22,22,0,1,1-22-22A22,22,0,0,1,236.79,60.5Zm-10.46-8.19-1.88-1.39a1.09,1.09,0,0,0-1.38.1L211.52,61.88,205,58.78a1.18,1.18,0,0,0-1.38.35l-1.59,2a1.09,1.09,0,0,0,.1,1.38l8.19,8.2a3,3,0,0,0,4.76-.37l11.4-16.77A.93.93,0,0,0,226.33,52.31Z"/><rect class="cls-3" x="12.5" y="12.5" width="256.39" height="244" rx="23.5"/></g></g></svg>