<svg xmlns="http://www.w3.org/2000/svg" viewBox="0 0 281.39 269"><defs><style>.cls-1,.cls-3{fill:none;stroke-miterlimit:10;}.cls-1{stroke:#231f20;stroke-width:25px;}.cls-2{fill:#43603d;}.cls-3{stroke:#b4cbaa;stroke-width:6px;}</style></defs><title>Asset 14</title><g id="Layer_2" data-name="Layer 2"><g id="Layer_1-2" data-name="Layer 1"><rect class="cls-1" x="12.5" y="12.5" width="256.39" height="244" rx="23.5"/><path id="user" class="cls-2" d="M206.5,175.88V191.5a5.65,5.65,0,0,1-5.65,5.65H82.15a5.65,5.65,0,0,1-5.65-5.65V175.88a8.93,8.93,0,0,1,5.26-7.71l29-15.29a28.4,28.4,0,0,0,25.36,16h10.7a28.41,28.41,0,0,0,25.36-16l29,15.29A8.93,8.93,0,0,1,206.5,175.88Zm-98.09-57.15a16.85,16.85,0,0,0,7.4,8.27l3.77,17.25a17,17,0,0,0,16.56,13.34h10.72a17,17,0,0,0,16.56-13.34L167.19,127a16.85,16.85,0,0,0,7.4-8.27l1.59-4.25c1.67-4.48.07-8.32-3.59-9.85V89.76c0-17-11.31-28.26-31.09-28.26s-31.09,11.3-31.09,28.26v14.87c-3.66,1.53-5.26,5.37-3.59,9.85Z"/><ellipse class="cls-2" cx="139.88" cy="198.78" rx="62" ry="25"/><ellipse class="cls-3" cx="139.88" cy="136" rx="89.38" ry="89.5"/></g></g></svg>