<svg xmlns="http://www.w3.org/2000/svg" viewBox="0 0 281.39 269"><defs><style>.cls-1{fill:#fff;}.cls-2{fill:#b3cbaa;}.cls-3{fill:#43613d;}.cls-4{fill:none;stroke:#272727;stroke-miterlimit:10;stroke-width:25px;}</style></defs><title>Asset 15</title><g id="Layer_2" data-name="Layer 2"><g id="Layer_1-2" data-name="Layer 1"><path class="cls-1" d="M187.83,88.17v9.2a3.27,3.27,0,0,0,3.39,3.13h6.56a3.27,3.27,0,0,0,3.39-3.13v-9.2h10A3.26,3.26,0,0,0,214.5,85V79a3.26,3.26,0,0,0-3.38-3.13h-10v-9.2a3.27,3.27,0,0,0-3.39-3.13h-6.56a3.27,3.27,0,0,0-3.39,3.13v9.2h-10A3.26,3.26,0,0,0,174.5,79V85a3.26,3.26,0,0,0,3.38,3.13Z"/><path class="cls-2" d="M194.14,43.5A38.36,38.36,0,1,0,232.5,81.86,38.35,38.35,0,0,0,194.14,43.5Zm19.18,41.55a3.19,3.19,0,0,1-3.19,3.2h-9.59v9.59a3.21,3.21,0,0,1-3.2,3.2H191a3.2,3.2,0,0,1-3.2-3.2V88.25h-9.59a3.2,3.2,0,0,1-3.2-3.2V78.66a3.21,3.21,0,0,1,3.2-3.2h9.59V65.88a3.2,3.2,0,0,1,3.2-3.2h6.39a3.2,3.2,0,0,1,3.2,3.2v9.58h9.59a3.2,3.2,0,0,1,3.19,3.2Z"/><path class="cls-3" d="M91.59,134.8a19.07,19.07,0,0,0,8.38,9.35l4.25,19.51A19.18,19.18,0,0,0,123,178.75h12.12a19.17,19.17,0,0,0,18.73-15.09l4.26-19.51a19.07,19.07,0,0,0,8.38-9.35l1.79-4.8a10.9,10.9,0,0,0,.7-3.91,50.82,50.82,0,0,1-23-52.81A43.38,43.38,0,0,0,129,70.07c-22.38,0-35.16,12.79-35.16,32v16.81c-4.14,1.73-6,6.07-4.06,11.15Z"/><path class="cls-3" d="M196.58,190.72l-32.83-17.3a32.13,32.13,0,0,1-28.68,18.12H123a32.11,32.11,0,0,1-28.67-18.12l-32.84,17.3a10.08,10.08,0,0,0-6,8.72v17.67a6.39,6.39,0,0,0,6.39,6.39H196.14a6.4,6.4,0,0,0,6.4-6.39V199.44A10.09,10.09,0,0,0,196.58,190.72Z"/><rect class="cls-4" x="12.5" y="12.5" width="256.39" height="244" rx="23.5"/></g></g></svg>