<svg xmlns="http://www.w3.org/2000/svg" viewBox="0 0 104 104"><defs><style>.cls-1{fill:#272727;}.cls-2{fill:#42603c;}.cls-3{fill:#b3cbaa;}</style></defs><title>Asset 43</title><g id="Layer_2" data-name="Layer 2"><g id="Layer_1-2" data-name="Layer 1"><path class="cls-1" d="M92.86,0H11.14A11.14,11.14,0,0,0,0,11.14V92.86A11.14,11.14,0,0,0,11.14,104H92.86A11.14,11.14,0,0,0,104,92.86V11.14A11.14,11.14,0,0,0,92.86,0Zm-1.4,92.86H12.54a1.4,1.4,0,0,1-1.4-1.4V12.54a1.4,1.4,0,0,1,1.4-1.4H91.46a1.4,1.4,0,0,1,1.4,1.4V91.46A1.4,1.4,0,0,1,91.46,92.86Z"/><path class="cls-2" d="M79.81,63.17a3.38,3.38,0,0,0-4.35,0L66,70.73a6.49,6.49,0,0,1-4.09,1.43H49.83a1.64,1.64,0,0,1,0-3.27h8a3.41,3.41,0,0,0,3.4-2.72A3.27,3.27,0,0,0,58,62.35H41.65A12,12,0,0,0,34.08,65l-4.75,3.85H23.66A1.63,1.63,0,0,0,22,70.52v9.82A1.63,1.63,0,0,0,23.66,82H60.14a6.52,6.52,0,0,0,4.08-1.43L79.68,68.17A3.27,3.27,0,0,0,79.81,63.17Z"/><path class="cls-1" d="M64.52,54.66v2.05a.8.8,0,0,1-.8.81l-25.94.09A.82.82,0,0,1,37,56.8v-2a3,3,0,0,1,1.33-2.53c.6-.49,2.91-2.4,4.76-3.95a8.13,8.13,0,0,0,6.14,2.81h3.07a8.14,8.14,0,0,0,6.1-2.83c1.83,1.5,4.1,3.36,4.8,3.89A2.7,2.7,0,0,1,64.52,54.66Z"/><path class="cls-1" d="M60.62,35.44l-.45,1.22A4.83,4.83,0,0,1,58.05,39L57,44a4.87,4.87,0,0,1-4.74,3.85H49.18A4.88,4.88,0,0,1,44.41,44l-1.1-4.94a4.86,4.86,0,0,1-2.13-2.36l-.46-1.22a2.07,2.07,0,0,1,1-2.83V28.42c0-4.87,3.21-8.12,8.89-8.14s8.93,3.21,8.94,8.07v4.27A2.07,2.07,0,0,1,60.62,35.44Z"/><path class="cls-3" d="M71.25,39.58l-.59,1.79a2.44,2.44,0,0,1-1.51,1.43l-.26,2.14a3.25,3.25,0,0,1-3.21,2.85H63.3a3,3,0,0,1-.42,0c-.69-.57-1.52-1.24-2.45-2l-.22-.17a3.87,3.87,0,0,1-.13-.59c0-.1.06-.2.08-.31l.8-3.73a7.72,7.72,0,0,0,2.25-3.16l.45-1.22a5.46,5.46,0,0,0-.84-5.51V28.57a6.6,6.6,0,0,1,1.62-.23,6.48,6.48,0,0,1,6.5,6.46l0,3.55A1.09,1.09,0,0,1,71.25,39.58Z"/><path class="cls-3" d="M75.85,51v2.4a.81.81,0,0,1-.81.81l-7.3,0A5.59,5.59,0,0,0,66.57,51a6.48,6.48,0,0,0,5-3.75l3.6,2.5A1.61,1.61,0,0,1,75.85,51Z"/><path class="cls-3" d="M35,51.08a5.88,5.88,0,0,0-1.2,3.3l-7.33,0a.82.82,0,0,1-.82-.81V51.2a1.64,1.64,0,0,1,.69-1.33l3.58-2.52A6.51,6.51,0,0,0,35,51.08Z"/><path class="cls-3" d="M41.33,45a5.23,5.23,0,0,1-.12.57l-.23.18L38.5,47.85c-.12,0-.25,0-.38,0H35.74a3.25,3.25,0,0,1-3.23-2.83l-.27-2.13a2.41,2.41,0,0,1-1.52-1.42l-.6-1.79a1.1,1.1,0,0,1,.3-1.24l0-3.54a6.49,6.49,0,0,1,6.47-6.51,6.21,6.21,0,0,1,1.62.23v2.48a5.41,5.41,0,0,0-.81,5.51l.46,1.22A7.68,7.68,0,0,0,40.42,41l.82,3.73Z"/></g></g></svg>