<svg xmlns="http://www.w3.org/2000/svg" viewBox="0 0 281.39 269"><defs><style>.cls-1{fill:#43603d;}.cls-2{fill:none;stroke:#231f20;stroke-miterlimit:10;stroke-width:25px;}</style></defs><title>Asset 16</title><g id="Layer_2" data-name="Layer 2"><g id="Layer_1-2" data-name="Layer 1"><path id="user" class="cls-1" d="M222.5,192.4v20a7.13,7.13,0,0,1-7.13,7.13H65.63a7.13,7.13,0,0,1-7.13-7.13v-20a11.36,11.36,0,0,1,6.64-9.82l36.62-19.48a35.81,35.81,0,0,0,32,20.4h13.5a35.81,35.81,0,0,0,32-20.4l36.62,19.48A11.36,11.36,0,0,1,222.5,192.4ZM98.75,120.7a21.36,21.36,0,0,0,9.35,10.43l4.74,21.76a21.41,21.41,0,0,0,20.9,16.83h13.52a21.41,21.41,0,0,0,20.9-16.83l4.74-21.76a21.36,21.36,0,0,0,9.35-10.43l2-5.36c2.11-5.66.08-10.5-4.53-12.44V84.15c0-21.39-14.26-35.65-39.22-35.65s-39.22,14.26-39.22,35.65V102.9c-4.61,1.94-6.64,6.78-4.53,12.44Z"/><rect class="cls-2" x="12.5" y="12.5" width="256.39" height="244" rx="23.5"/></g></g></svg>