<svg xmlns="http://www.w3.org/2000/svg" viewBox="0 0 281.39 269"><defs><style>.cls-1{fill:#43603d;}.cls-2{fill:none;stroke:#272727;stroke-miterlimit:10;stroke-width:25px;}</style></defs><title>Asset 13</title><g id="Layer_2" data-name="Layer 2"><g id="Layer_1-2" data-name="Layer 1"><path class="cls-1" d="M120.5,153.5v27.61c0,5.19,4.54,9.39,10.15,9.39h19.7c5.61,0,10.15-4.2,10.15-9.39V153.5h29.85c5.61,0,10.15-4.2,10.15-9.39V125.89c0-5.19-4.54-9.39-10.15-9.39H160.5V88.89c0-5.19-4.54-9.39-10.15-9.39h-19.7c-5.61,0-10.15,4.2-10.15,9.39V116.5H90.65c-5.61,0-10.15,4.2-10.15,9.39v18.22c0,5.19,4.54,9.39,10.15,9.39Z"/><rect class="cls-2" x="12.5" y="12.5" width="256.39" height="244" rx="23.5"/></g></g></svg>