<svg xmlns="http://www.w3.org/2000/svg" viewBox="0 0 281.39 269"><defs><style>.cls-1{fill:#43613d;}.cls-2{fill:none;stroke:#231f20;stroke-miterlimit:10;stroke-width:25px;}.cls-3{fill:#b3cbaa;}</style></defs><title>Asset 12</title><g id="Layer_2" data-name="Layer 2"><g id="Layer_1-2" data-name="Layer 1"><path id="user" class="cls-1" d="M129.5,181.69V192.5a3.91,3.91,0,0,1-3.91,3.91H43.41a3.91,3.91,0,0,1-3.91-3.91V181.69a6.18,6.18,0,0,1,3.64-5.34l20.1-10.59a19.67,19.67,0,0,0,17.55,11.09h7.42a19.65,19.65,0,0,0,17.55-11.09l20.1,10.59A6.18,6.18,0,0,1,129.5,181.69ZM61.59,142.12a11.67,11.67,0,0,0,5.13,5.72l2.6,11.95A11.74,11.74,0,0,0,80.79,169h7.42a11.74,11.74,0,0,0,11.47-9.23l2.6-11.95a11.67,11.67,0,0,0,5.13-5.72l1.1-2.94c1.15-3.11,0-5.76-2.49-6.82V122.07c0-11.74-7.82-19.57-21.52-19.57S63,110.33,63,122.07v10.29c-2.53,1.06-3.64,3.71-2.49,6.82Z"/><rect class="cls-2" x="12.5" y="12.5" width="256.39" height="244" rx="23.5"/><rect class="cls-3" x="39.5" y="57.5" width="202" height="19" rx="3.16"/><rect class="cls-3" x="141.5" y="102.5" width="100" height="19" rx="3.41"/><rect class="cls-3" x="142.5" y="176.5" width="99" height="19" rx="3.53"/><rect class="cls-3" x="142.5" y="140.5" width="59" height="19" rx="3.83"/><rect class="cls-3" x="212.5" y="140.5" width="29" height="19" rx="3.07"/></g></g></svg>