<svg xmlns="http://www.w3.org/2000/svg" viewBox="0 0 107 107"><defs><style>.cls-1{fill:#272727;}.cls-2{fill:#42603c;}.cls-3{fill:#fff;}.cls-4{fill:#b3cbaa;}</style></defs><title>Asset 44</title><g id="Layer_2" data-name="Layer 2"><g id="Layer_1-2" data-name="Layer 1"><path class="cls-1" d="M95.54,0H11.46A11.47,11.47,0,0,0,0,11.46V95.54A11.47,11.47,0,0,0,11.46,107H95.54A11.47,11.47,0,0,0,107,95.54V11.46A11.47,11.47,0,0,0,95.54,0ZM94.1,95.54H12.9a1.45,1.45,0,0,1-1.44-1.44V12.9a1.45,1.45,0,0,1,1.44-1.44H94.1a1.45,1.45,0,0,1,1.44,1.44V94.1A1.45,1.45,0,0,1,94.1,95.54Z"/><path class="cls-2" d="M87.61,50.75A38.22,38.22,0,0,0,53.69,29.6,38.24,38.24,0,0,0,19.77,50.75a3.81,3.81,0,0,0,0,3.48A38.24,38.24,0,0,0,53.69,75.38,38.24,38.24,0,0,0,87.61,54.23,3.81,3.81,0,0,0,87.61,50.75Z"/><path class="cls-3" d="M53.69,69.3A17.17,17.17,0,1,1,70.86,52.13,17.17,17.17,0,0,1,53.69,69.3Z"/><path class="cls-4" d="M53.69,40.68a11.45,11.45,0,0,0-3,.46,5.7,5.7,0,0,1-8,8,11.42,11.42,0,1,0,14-8A11.87,11.87,0,0,0,53.69,40.68Z"/></g></g></svg>