<svg xmlns="http://www.w3.org/2000/svg" viewBox="0 0 281.39 269"><defs><style>.cls-1{fill:#b3cbaa;}.cls-2{fill:#43613d;}.cls-3{fill:none;stroke:#231f20;stroke-miterlimit:10;stroke-width:25px;}</style></defs><title>Asset 8</title><g id="Layer_2" data-name="Layer 2"><g id="Layer_1-2" data-name="Layer 1"><path class="cls-1" d="M118.94,84.83l22.6-31.23a3,3,0,0,1,4.89,0l22.84,31.05a3,3,0,0,1-2.42,4.82l-12.36,0-3.84,27.64a3,3,0,0,1-3,2.61l-6.85,0a3,3,0,0,1-3-2.59l-4.06-27.61-12.36,0A3,3,0,0,1,118.94,84.83Z"/><circle class="cls-2" cx="113.89" cy="195.33" r="9.07"/><path class="cls-2" d="M208.62,77.45H199.2a4,4,0,0,0-3.68,3L184,131.86H111.55l-13-59.37a9.05,9.05,0,0,0-8.86-7.13H68.55a6,6,0,0,0-6,6v6a6,6,0,0,0,6,6H82.4l19.6,89.6a9.08,9.08,0,0,0,8.86,7.13h72.55a6,6,0,0,0,6-6.05v-6a6,6,0,0,0-6-6H118.16L115.52,150h77a7.89,7.89,0,0,0,7.36-5.9l13.5-60.74A4.64,4.64,0,0,0,208.62,77.45Z"/><circle class="cls-2" cx="174.34" cy="195.33" r="9.07"/><rect class="cls-3" x="12.5" y="12.5" width="256.39" height="244" rx="23.5"/></g></g></svg>