<svg xmlns="http://www.w3.org/2000/svg" viewBox="0 0 113.9 98"><defs><style>.cls-1{fill:#42603c;}</style></defs><title>540x785 no dataAsset 64</title><g id="Layer_2" data-name="Layer 2"><g id="Layer_1-2" data-name="Layer 1"><path class="cls-1" d="M85.8,0h20.82V72.66c0,11.53,4,18.38,7.28,21.24-3.4,3.86-13.7,7.28-21.47-1-4.55-4.87-6.63-13-6.63-20.54Z"/><path class="cls-1" d="M85.81,48.75V60.39a53.79,53.79,0,0,1-11.64,1.36c-8.25,17.3-23,32.14-28,34.91-3.13,1.76-6.05,1.87-9.54-.18C30.61,92.84,7.64,74,0,14.78H16.65C20.83,50.33,31.06,68.57,42.3,82.22A92.68,92.68,0,0,0,59.2,58.33C48.07,52.68,41.3,40.25,41.3,25.79,41.3,11.14,49.72.07,64.13.07c25.68,0,23.74,28.59,18.24,40.56,0,0-10.37,2.06-14.19-4.58A40.6,40.6,0,0,0,70,25.21c0-7-2.52-10.41-6.34-10.41-4.07,0-6.89,3.82-6.89,11.17,0,17.7,13.28,26.53,29,22.78Z"/></g></g></svg>