<svg xmlns="http://www.w3.org/2000/svg" viewBox="0 0 153.23 147.1"><defs><style>.cls-1{fill:#42603c;}.cls-2{fill:#272727;}.cls-3{fill:#fff;}</style></defs><title>Asset 26</title><g id="Layer_2" data-name="Layer 2"><g id="Layer_1-2" data-name="Layer 1"><path id="book-address" class="cls-1" d="M153.23,98.06v18.39a6.13,6.13,0,0,1-6.13,6.13H134.84V91.93H147.1A6.13,6.13,0,0,1,153.23,98.06Zm0-42.9V73.55a6.12,6.12,0,0,1-6.13,6.12H134.84V49H147.1A6.12,6.12,0,0,1,153.23,55.16Zm0-42.91V30.64a6.12,6.12,0,0,1-6.13,6.13H134.84V6.13H147.1A6.12,6.12,0,0,1,153.23,12.25Z"/><path class="cls-2" d="M24.52,116.45h98.07V6.13A6.13,6.13,0,0,0,116.46,0H24.52A24.51,24.51,0,0,0,0,24.51v98.07A24.52,24.52,0,0,0,24.52,147.1h91.94a6.14,6.14,0,0,0,6.13-6.13V128.71H24.52a6.13,6.13,0,1,1,0-12.26Z"/><path class="cls-3" d="M86.2,82.9v5.92a3.12,3.12,0,0,1-3.12,3.11H39.51a3.12,3.12,0,0,1-3.12-3.11V82.9a6.21,6.21,0,0,1,2.89-5.25l9.56-6.09-.9-7.22a9,9,0,0,1-4.73-5l-.67-2a4.53,4.53,0,0,1,.34-3.89V42.26a18.42,18.42,0,1,1,36.83,0V53.48A4.5,4.5,0,0,1,80,57.37l-.66,2a9,9,0,0,1-4.73,5l-.9,7.22,9.56,6.09A6.21,6.21,0,0,1,86.2,82.9Z"/></g></g></svg>