<svg xmlns="http://www.w3.org/2000/svg" width="693" height="170" viewBox="0 0 693 170" fill="none">
<path d="M115.147 107.84C115.147 71.7704 140.262 46.2209 176.177 46.2209C211.841 46.2209 236.956 71.7704 236.956 107.84C236.956 143.409 211.338 168.958 175.423 168.958C139.76 168.945 115.147 143.91 115.147 107.84ZM205.311 108.592V107.59C205.311 85.0461 194.26 71.5199 176.177 71.5199C157.843 71.5199 146.792 85.0461 146.792 107.59V108.592C146.792 130.634 157.592 143.66 175.675 143.66C194.009 143.66 205.311 130.634 205.311 108.592Z" fill="#272727" style="&#10;    fill: white;&#10;"/>
<path d="M397.05 0.38208H479.206C483.461 0.38208 486.922 3.81929 486.922 8.07753V20.0034C486.922 24.2477 483.475 27.6988 479.206 27.6988H428.933C424.677 27.6988 421.217 31.136 421.217 35.3943V64.8541C421.217 69.0984 424.663 72.5495 428.933 72.5495H466.56C470.815 72.5495 474.276 75.9867 474.276 80.245V92.1708C474.276 96.4152 470.829 99.8663 466.56 99.8663H428.933C424.677 99.8663 421.217 103.303 421.217 107.562V159.064C421.217 163.309 417.77 166.76 413.501 166.76H397.022C392.767 166.76 389.306 163.322 389.306 159.064V8.07753C389.348 3.81929 392.794 0.38208 397.05 0.38208Z" fill="#272727" style="&#10;    fill: white;&#10;"/>
<path d="M510.949 48.477H525.977C530.498 48.477 534.153 52.123 534.153 56.6317V158.537C534.153 163.046 530.498 166.692 525.977 166.692H510.949C506.429 166.692 502.773 163.046 502.773 158.537V56.6317C502.773 52.123 506.429 48.477 510.949 48.477Z" fill="#272727" style="&#10;    fill: white;&#10;"/>
<path d="M502 8.17687C502 3.87193 505.49 0.38208 509.795 0.38208H527.333C531.638 0.38208 535.128 3.87193 535.128 8.17687V19.8691C535.128 24.174 531.638 27.6638 527.333 27.6638H509.795C505.49 27.6638 502 24.174 502 19.8691V8.17687Z" fill="#272727" style="&#10;    fill: white;&#10;"/>
<path d="M573.827 135.395V80.4969C573.827 76.6423 570.702 73.5251 566.837 73.5251H563.99C560.126 73.5251 557 70.408 557 66.5533V55.4485C557 51.5938 560.126 48.4766 563.99 48.4766H566.837C570.702 48.4766 573.827 45.3595 573.827 41.5048V30.2608C573.827 27.7421 575.195 25.4181 577.385 24.1796L593.794 14.9813C598.454 12.3651 604.203 15.7327 604.203 21.0625V41.5048C604.203 45.3595 607.328 48.4766 611.193 48.4766H620.57C624.435 48.4766 627.56 51.5938 627.56 55.4485V66.5533C627.56 70.408 624.435 73.5251 620.57 73.5251H610.942C607.077 73.5251 603.952 76.6423 603.952 80.4969V132.389C603.952 138.15 606.715 140.655 612.491 140.906H619.314C623.179 140.906 626.305 144.023 626.305 147.877V159.734C626.305 163.588 623.179 166.705 619.314 166.705H602.431C602.277 166.705 602.11 166.705 601.957 166.692C579.311 165.37 574.33 154.863 573.827 135.395Z" fill="#272727" style="&#10;    fill: white;&#10;"/>
<path d="M254.189 113.456C254.189 130.632 258.929 144.243 268.408 154.289C277.887 164.335 291.62 169.358 309.606 169.358C327.592 169.358 341.365 164.335 350.925 154.289C360.485 144.243 365.265 130.632 365.265 113.456V54.4205C365.265 54.407 365.265 54.407 365.265 54.3935C365.265 51.2338 362.376 49.1003 359.891 49.1003H341.473C338.138 49.1003 336.099 51.8685 336.099 54.3935C336.099 54.407 336.099 54.407 336.099 54.4205V113.456C336.099 123.34 333.911 130.672 329.536 135.452C325.161 140.232 318.518 142.622 309.606 142.622C300.856 142.622 294.293 140.232 289.918 135.452C285.543 130.672 283.356 123.34 283.356 113.456V54.4205C283.356 54.407 283.356 54.407 283.356 54.3935C283.356 52.9487 281.979 49.1003 277.982 49.1003H260.914C256.363 49.1003 254.189 51.3553 254.189 55.7438" fill="#272727" style="&#10;    fill: white;&#10;"/>
<path d="M679 30.5857C680.917 29.6268 682.382 28.2808 683.397 26.5475C684.411 24.8142 684.919 22.8227 684.919 20.5731C684.919 18.9136 684.599 17.3647 683.96 15.9264C683.322 14.525 682.439 13.2896 681.311 12.2201C680.184 11.1506 678.85 10.3024 677.309 9.6755C675.806 9.08544 674.19 8.79041 672.462 8.79041C670.733 8.79041 669.098 9.08544 667.558 9.6755C666.054 10.3024 664.739 11.1506 663.612 12.2201C662.485 13.2896 661.583 14.5435 660.906 15.9818C660.267 17.42 659.948 18.9689 659.948 20.6285C659.948 23.21 660.643 25.4227 662.034 27.2666C663.462 29.1105 665.303 30.2907 667.558 30.807V19.5774H674.66V39.7132H671.503C668.76 39.7132 666.186 39.2337 663.781 38.2749C661.414 37.3161 659.347 35.9884 657.581 34.292C655.852 32.5956 654.48 30.5673 653.466 28.207C652.489 25.8837 652 23.339 652 20.5731C652 17.7335 652.526 15.0782 653.579 12.6074C654.668 10.1734 656.134 8.05284 657.975 6.24579C659.854 4.43873 662.034 3.00046 664.514 1.93098C666.994 0.898381 669.643 0.38208 672.462 0.38208C675.28 0.38208 677.929 0.916821 680.409 1.9863C682.89 3.05578 685.05 4.49405 686.892 6.3011C688.77 8.14504 690.236 10.3024 691.288 12.7733C692.378 15.2442 692.923 17.8626 692.923 20.6285C692.923 24.5376 692.021 28.0226 690.217 31.0836C688.414 34.1814 685.915 36.5232 682.72 38.1089L679 30.5857Z" fill="#272727" style="&#10;    fill: white;&#10;"/>
<path d="M652.733 65.0013V56.6482H669.869L692.19 42.8187V52.3334L677.76 60.9077L692.19 69.482V78.8307L669.869 65.0013H652.733Z" fill="#272727" style="&#10;    fill: white;&#10;"/>
<path d="M692.19 130.784H652.733V122.708H678.155L652.733 111.312V105.891L678.042 94.551H652.733V86.4746H692.19V96.5978L664.739 108.768L692.19 120.938V130.784Z" fill="#272727" style="&#10;    fill: white;&#10;"/>
<path d="M665.585 146.949C663.894 147.613 662.522 148.59 661.47 149.881C660.455 151.209 659.948 152.721 659.948 154.417C659.948 155.782 660.286 156.943 660.963 157.902C661.639 158.898 662.616 159.396 663.894 159.396C665.735 159.396 667.144 158.05 668.121 155.358L669.812 150.711C670.864 147.871 672.292 145.622 674.096 143.962C675.9 142.302 678.23 141.473 681.086 141.473C682.89 141.473 684.505 141.786 685.933 142.413C687.399 143.04 688.639 143.925 689.654 145.068C690.706 146.212 691.514 147.539 692.077 149.051C692.641 150.6 692.923 152.297 692.923 154.141C692.923 157.017 692.171 159.635 690.668 161.996C689.165 164.356 687.079 166.126 684.411 167.306L680.353 160.391C681.668 159.801 682.777 158.99 683.679 157.957C684.618 156.962 685.088 155.745 685.088 154.307C685.088 153.016 684.768 151.965 684.13 151.153C683.491 150.379 682.645 149.992 681.593 149.992C680.654 149.992 679.883 150.324 679.282 150.987C678.681 151.651 678.155 152.573 677.704 153.753L675.731 158.787C674.528 161.922 673.006 164.227 671.165 165.702C669.361 167.214 667.125 167.97 664.457 167.97C662.466 167.97 660.7 167.583 659.159 166.808C657.618 166.071 656.322 165.075 655.27 163.821C654.217 162.567 653.409 161.111 652.846 159.451C652.282 157.828 652 156.114 652 154.307C652 152.684 652.226 151.135 652.677 149.66C653.09 148.185 653.691 146.82 654.48 145.566C655.307 144.312 656.322 143.188 657.524 142.192C658.727 141.196 660.117 140.403 661.695 139.813L665.585 146.949Z" fill="#272727" style="&#10;    fill: white;&#10;"/>
<path d="M1.32737 12.3397L52.0323 89.3586C52.885 90.6552 53.3464 92.175 53.3464 93.7226V158.681C53.3464 163.073 56.9252 166.642 61.3288 166.642H77.3078C81.7115 166.642 85.2903 163.073 85.2903 158.681V100.063V91.2774C85.2903 77.6102 74.6801 65.4074 66.6201 53.6516L31.7894 3.68133C30.3216 1.39474 27.7772 0.000480652 25.0512 0.000480652H7.99575C1.64891 0.000480652 -2.16759 7.04149 1.32737 12.3397Z" fill="#272727" style="&#10;    fill: white;&#10;"/>
<path d="M137.436 12.5484C140.95 7.02709 137.436 0 130.234 0L113.183 0C109.83 0 108.003 2.21305 106.818 4.01548L65.6438 65.2358L84.2468 90.8659L137.436 12.5484Z" fill="url(#paint0_linear)" style="&#10;    fill: white;&#10;"/>
<defs>
<linearGradient id="paint0_linear" x1="140.234" y1="-2.22038e-05" x2="61.5701" y2="86.39" gradientUnits="userSpaceOnUse">
<stop offset="0.21875" stop-color="#272727" style="&#10;    stop-color: rgb(245, 245, 245);&#10;"/>
<stop offset="1" stop-color="#272727" stop-opacity="0"/>
</linearGradient>
</defs>
</svg>