<svg id="Layer_1" data-name="Layer 1" xmlns="http://www.w3.org/2000/svg" xmlns:xlink="http://www.w3.org/1999/xlink" viewBox="0 0 325.43 325.43"><defs><style>.cls-1{fill:none;stroke:#231f20;stroke-miterlimit:10;stroke-width:15px;}.cls-2{fill:#231f20;}.cls-3{fill:url(#linear-gradient);}</style><linearGradient id="linear-gradient" x1="318.34" y1="505.92" x2="239.68" y2="419.53" gradientTransform="matrix(1, 0, 0, -1, 0, 842.11)" gradientUnits="userSpaceOnUse"><stop offset="0.22"/><stop offset="1" stop-opacity="0"/></linearGradient></defs><title>Untitled-212</title><circle class="cls-1" cx="162.72" cy="162.72" r="155.22"/><path d="M330.05,337.38h82.16a7.71,7.71,0,0,1,7.71,7.7V357a7.7,7.7,0,0,1-7.71,7.7H361.93a7.7,7.7,0,0,0-7.71,7.69v29.46a7.7,7.7,0,0,0,7.71,7.7h37.63a7.71,7.71,0,0,1,7.72,7.69v11.93a7.71,7.71,0,0,1-7.72,7.7H361.93a7.7,7.7,0,0,0-7.71,7.69v51.5a7.71,7.71,0,0,1-7.72,7.7H330a7.71,7.71,0,0,1-7.71-7.7v-151A7.75,7.75,0,0,1,330.05,337.38Z" transform="translate(-137.64 -240.5)"/><path class="cls-2" d="M180.33,349.34l50.7,77a8,8,0,0,1,1.32,4.36v65a8,8,0,0,0,8,8h16a8,8,0,0,0,8-8v-67.4c0-13.67-10.61-25.87-18.67-37.63l-34.83-50a8,8,0,0,0-6.74-3.68H187A8,8,0,0,0,180.33,349.34Z" transform="translate(-137.64 -240.5)"/><path class="cls-3" d="M316.44,349.55c3.51-5.52,0-12.55-7.21-12.55H292.18c-3.35,0-5.18,2.21-6.36,4l-41.18,61.22,18.61,25.63Z" transform="translate(-137.64 -240.5)"/></svg>